<svg width="535" height="204" viewBox="0 0 535 204" fill="none" xmlns="http://www.w3.org/2000/svg">
<path d="M0 103.681C0 84.7739 15.327 69.4468 34.2339 69.4468V69.4468C49.8269 69.4468 63.4497 58.9097 67.3689 43.8173L69.7303 34.7234C75.0401 14.2759 93.4966 0 114.622 0H393.741C416.21 0 436.376 13.7871 444.531 34.7234L446.716 40.3337C453.554 57.8873 470.462 69.4468 489.3 69.4468V69.4468C514.539 69.4468 535 89.9074 535 115.147V140C535 175.346 506.346 204 471 204H64C28.6538 204 0 175.346 0 140V103.681Z" fill="#1A1A1A"/>
</svg>
