<svg width="1010" height="830" viewBox="0 0 1010 830" fill="none" xmlns="http://www.w3.org/2000/svg">
<path d="M0 50C0 22.3857 22.3858 0 50 0H984.464C1003.43 0 1015.49 20.2915 1006.42 36.9503L829.469 362.104C824.349 371.512 816.344 379.027 806.631 383.542L565.625 495.595C547.987 503.796 536.705 521.482 536.705 540.934V788.004C536.705 833.388 474.183 845.644 457.049 803.618V803.618C450.702 788.05 435.563 777.873 418.751 777.873H103.497C88.2959 777.873 74.7456 787.457 69.6812 801.79V801.79C56.2492 839.805 0 830.159 0 789.841V50Z" fill="#D8AE5E"/>
</svg>
