<svg width="1660" height="999" viewBox="0 0 1660 999" fill="none" xmlns="http://www.w3.org/2000/svg">
<path d="M0 50C0 22.3857 22.3858 0 50 0H984.464C1003.43 0 1015.49 20.2915 1006.42 36.9503L829.469 362.104C824.349 371.512 816.344 379.027 806.631 383.542L565.625 495.595C547.987 503.796 536.705 521.482 536.705 540.934V788.004C536.705 833.388 474.183 845.644 457.049 803.618V803.618C450.702 788.05 435.563 777.873 418.751 777.873H103.497C88.2959 777.873 74.7456 787.457 69.6812 801.79V801.79C56.2492 839.805 0 830.159 0 789.841V50Z" fill="#D8AE5E"/>
<path d="M1030.15 43.8791C1044.47 16.9667 1073.51 0 1105.24 0H1575.85C1622.32 0 1660 35.8019 1660 79.9657V919.034C1660 963.198 1622.32 999 1575.85 999H644.153C597.677 999 560 963.198 560 919.034V567.932C560 543.741 574.615 521.699 597.579 511.257L814.267 412.722C831.023 405.103 844.655 392.429 853.038 376.677L1030.15 43.8791Z" fill="url(#paint0_linear_47_29)"/>
<path d="M0 898.681C0 879.774 15.327 864.447 34.2339 864.447V864.447C49.8269 864.447 63.4497 853.91 67.3689 838.817L69.7303 829.723C75.0401 809.276 93.4966 795 114.622 795H393.741C416.21 795 436.376 808.787 444.531 829.723L446.716 835.334C453.554 852.887 470.462 864.447 489.3 864.447V864.447C514.539 864.447 535 884.907 535 910.147V935C535 970.346 506.346 999 471 999H64C28.6538 999 0 970.346 0 935V898.681Z" fill="#1A1A1A"/>
<defs>
<linearGradient id="paint0_linear_47_29" x1="1625.74" y1="984.72" x2="1113.7" y2="-21.7587" gradientUnits="userSpaceOnUse">
<stop stop-color="#043936"/>
<stop offset="1" stop-color="#0B9F97"/>
</linearGradient>
</defs>
</svg>
